HIERARCHY
ROOT hip
{
	OFFSET 0.000000 0.000000 0.000000 
	CHANNELS 6 Xposition Yposition Zposition Xrotation Zrotation Yrotation
	JOINT abdomen
	{
		OFFSET 0.000000 3.402643 0.000000 
		CHANNELS 3 Xrotation Zrotation Yrotation
		JOINT chest
		{
			OFFSET 0.000000 8.438565 -0.680529 
			CHANNELS 3 Xrotation Zrotation Yrotation
			JOINT neck
			{
				OFFSET 0.000000 10.207942 -0.272212 
				CHANNELS 3 Xrotation Zrotation Yrotation
				JOINT head
				{
					OFFSET 0.000000 3.130431 0.000000 
					CHANNELS 3 Xrotation Zrotation Yrotation
					End Site
					{
						OFFSET 0.000000 3.130435 0.000000 
					}
				}
			}
			JOINT lCollar
			{
				OFFSET 3.470700 6.669187 -0.816635 
				CHANNELS 3 Yrotation Zrotation Xrotation
				JOINT lShldr
				{
					OFFSET 3.198488 0.000000 0.000000 
					CHANNELS 3 Zrotation Yrotation Xrotation
					JOINT lForeArm
					{
						OFFSET 10.139888 0.000000 0.000000 
						CHANNELS 3 Yrotation Zrotation Xrotation
						JOINT lHand
						{
							OFFSET 8.370511 0.000000 0.000000 
							CHANNELS 3 Zrotation Yrotation Xrotation
							End Site
							{
								OFFSET 4.083176 0.000000 0.000000 
							}
						}
					}
				}
			}
			JOINT rCollar
			{
				OFFSET -3.470700 6.669187 -0.816635 
				CHANNELS 3 Yrotation Zrotation Xrotation
				JOINT rShldr
				{
					OFFSET -3.198488 0.000000 0.000000 
					CHANNELS 3 Zrotation Yrotation Xrotation
					JOINT rForeArm
					{
						OFFSET -10.139888 0.000000 0.000000 
						CHANNELS 3 Yrotation Zrotation Xrotation
						JOINT rHand
						{
							OFFSET -8.370511 0.000000 0.000000 
							CHANNELS 3 Zrotation Yrotation Xrotation
							End Site
							{
								OFFSET -4.083176 0.000000 0.000000 
							}
						}
					}
				}
			}
		}
	}
	JOINT lThigh
	{
		OFFSET 5.308129 -1.633274 1.361059 
		CHANNELS 3 Xrotation Zrotation Yrotation
		JOINT lShin
		{
			OFFSET -2.041588 -20.007561 0.000000 
			CHANNELS 3 Xrotation Zrotation Yrotation
			JOINT lFoot
			{
				OFFSET 0.000000 -19.190928 -1.224953 
				CHANNELS 3 Xrotation Yrotation Zrotation
				End Site
				{
					OFFSET 0.000000 -2.449906 4.627600 
				}
			}
		}
	}
	JOINT rThigh
	{
		OFFSET -5.308129 -1.633274 1.361059 
		CHANNELS 3 Xrotation Zrotation Yrotation
		JOINT rShin
		{
			OFFSET 2.041588 -20.007561 0.000000 
			CHANNELS 3 Xrotation Zrotation Yrotation
			JOINT rFoot
			{
				OFFSET 0.000000 -19.190928 -1.224953 
				CHANNELS 3 Xrotation Yrotation Zrotation
				End Site
				{
					OFFSET 0.000000 -2.449906 4.627600 
				}
			}
		}
	}
}
MOTION
Frames: 10
Frame Time: 0.016667
0.000000 49.403057 0.000000 -3.515625 0.000000 0.000000 20.725676 -0.537101 -0.322343 -1.240234 0.000000 0.000000 -8.607671 -2.040968 0.390725 5.588009 2.050767 -0.214706 0.000000 0.000000 0.000000 -77.502045 -3.065406 -0.069103 -0.687263 -5.954307 6.037358 3.391611 -0.853931 -6.153819 0.000000 0.000000 0.000000 78.727737 1.309901 0.127350 -0.042892 3.133475 5.075717 -2.056873 1.521897 -5.436424 6.041041 3.786450 -0.007885 -2.557515 -3.758529 0.053299 -0.018210 0.003790 -0.029898 -0.214885 -5.441201 -0.375498 -2.556191 4.966399 0.034733 4.561954 0.196247 0.261094 
0.000000 49.417530 -0.456700 -7.392578 0.000000 0.000000 20.725676 -0.537101 -0.322343 -2.646484 0.000000 0.000000 -11.595952 -2.040968 0.390725 5.588009 2.050767 -0.214706 0.000000 0.000000 0.000000 -77.488419 -7.975536 -0.294882 -0.687263 -5.954307 6.037358 3.391611 -0.853931 -6.153819 0.000000 0.000000 0.000000 78.728973 4.303229 0.059380 -0.042892 3.133475 5.075717 -2.056873 1.521897 -5.436424 9.956189 3.807017 -0.168437 -2.758971 -3.811198 0.265356 -0.024038 -0.036274 -0.024210 -2.616749 -5.369451 -0.421721 -2.820868 5.046355 0.009871 9.311809 0.218512 0.245488 
0.000000 49.403049 -0.913401 -11.074219 0.000000 0.000000 20.725676 -0.537101 -0.322343 -4.052734 0.000000 0.000000 -14.760014 -2.040968 0.390725 5.588009 2.050767 -0.214706 0.000000 0.000000 0.000000 -77.442139 -12.889584 -0.536549 -0.687263 -5.954307 6.037358 3.391611 -0.853931 -6.153819 0.000000 0.000000 0.000000 78.719772 7.288514 0.003979 -0.042892 3.133475 5.075717 -2.056873 1.521897 -5.436424 13.643122 3.825387 -0.300497 -2.797951 -3.987771 0.265858 0.156250 0.003464 -0.009131 -5.261727 -5.427660 -0.468428 -2.828237 5.051889 -0.030232 14.029615 0.248276 0.230409 
0.000000 49.323452 -0.913401 -14.765624 0.000000 0.000000 20.725676 -0.537101 -0.322343 -5.283204 0.000000 0.000000 -17.748297 -2.040968 0.390725 5.588009 2.050767 -0.214706 0.000000 0.000000 0.000000 -77.382072 -17.811089 -0.774831 -0.687263 -5.954307 6.037358 3.391611 -0.853931 -6.153819 0.000000 0.000000 0.000000 78.709595 10.279000 -0.069547 -0.042892 3.133475 5.075717 -2.056873 1.521897 -5.436424 17.443817 3.806019 -0.446221 -2.769226 -3.804642 0.246247 0.100263 0.286375 0.108303 -7.812167 -5.380726 -0.560069 -2.731963 4.908055 0.364559 18.963707 0.149946 0.196907 
0.000000 49.243858 -1.370054 -18.457031 0.000000 0.000000 20.725676 -0.537101 -0.322343 -6.689453 0.000000 0.000000 -20.736578 -2.040968 0.390725 5.588009 2.050767 -0.214706 0.000000 0.000000 0.000000 -77.287605 -22.717493 -1.060309 -0.687263 -5.954307 6.037358 3.391611 -0.853931 -6.153819 0.000000 0.000000 0.000000 78.699188 13.262877 -0.117490 -0.042892 3.133475 5.075717 -2.056873 1.521897 -5.436424 21.007820 3.808098 -0.480726 -2.558993 -3.728476 0.443376 0.073731 0.121503 0.004221 -10.457610 -5.399711 -0.605051 -2.723986 4.911304 0.335935 23.524197 0.183240 0.183931 
0.000000 49.135307 -1.826744 -21.982422 0.000000 0.000000 20.725676 -0.537101 -0.322343 -8.095703 0.000000 0.000000 -23.724857 -2.040968 0.390725 5.588009 2.050767 -0.214706 0.000000 0.000000 0.000000 -77.175056 -27.641666 -1.380792 -0.687263 -5.954307 6.037358 3.391611 -0.853931 -6.153819 0.000000 0.000000 0.000000 78.677887 16.429480 -0.187399 -0.042892 3.133475 5.075717 -2.056873 1.521897 -5.436424 24.969063 3.838090 -0.426038 -2.803046 -3.807662 0.434694 -0.090261 0.158349 0.007961 -13.336729 -5.438208 -0.673419 -2.723826 4.911012 0.326184 28.778282 0.194338 0.164506 
0.000000 48.976120 -2.283436 -25.673828 0.000000 0.000000 20.725676 -0.537101 -0.322343 -9.316406 0.000000 0.000000 -26.713139 -2.040968 0.390725 5.588009 2.050767 -0.214706 0.000000 0.000000 0.000000 -77.013420 -32.557575 -1.615154 -0.687263 -5.954307 6.037358 3.391611 -0.853931 -6.153819 0.000000 0.000000 0.000000 78.643913 19.416838 -0.248947 -0.042892 3.133475 5.075717 -2.056873 1.521897 -5.436424 28.692167 3.827952 -0.433562 -2.804059 -3.993236 0.315617 0.085613 0.111139 0.042057 -15.968052 -5.446165 -0.619016 -2.731609 4.909403 0.393790 33.378761 0.067047 0.136076 
0.000152 48.782986 -2.715335 -29.365234 0.000000 0.000000 20.725676 -0.537101 -0.322343 -10.732421 0.000000 0.000000 -29.701420 -2.040968 0.390725 5.588009 2.050767 -0.214706 0.000000 0.000000 0.000000 -76.807487 -37.645592 -2.061384 -0.687263 -5.954307 6.037358 3.391611 -0.853931 -6.153819 0.000000 0.000000 0.000000 78.630539 22.401060 -0.308882 -0.042892 3.133475 5.075717 -2.056873 1.521897 -5.436424 32.417358 3.837895 -0.387984 -2.801293 -4.019888 0.296525 0.059287 0.122116 0.025343 -18.542677 -5.429041 -0.664468 -2.719306 4.904652 0.385001 38.124752 0.102997 0.141582 
0.000152 48.599834 -3.172022 -33.046871 0.000000 0.000000 20.725676 -0.537101 -0.322343 -12.138672 0.000000 0.000000 -32.689701 -2.040968 0.390725 5.588009 2.050767 -0.214706 0.000000 0.000000 0.000000 -76.551834 -42.558167 -2.422291 -0.687263 -5.954307 6.037358 3.391611 -0.853931 -6.153819 0.000000 0.000000 0.000000 78.595421 25.393158 -0.364742 -0.042892 3.133475 5.075717 -2.056873 1.521897 -5.436424 36.306000 4.023750 -0.301201 -2.597189 -4.167136 0.267954 -0.204495 0.021374 -0.012755 -21.114172 -5.427638 -0.357568 -2.817465 5.030526 -0.155436 42.870544 0.226960 -0.011719 
0.000152 48.346577 -3.628713 -36.738281 0.000000 0.000000 20.725676 -0.537101 -0.322343 -13.359374 0.000000 0.000000 -35.677982 -2.040968 0.390725 5.588009 2.050767 -0.214706 0.000000 0.000000 0.000000 -76.225883 -47.642895 -2.900350 -0.687263 -5.954307 6.037358 3.391611 -0.853931 -6.153819 0.000000 0.000000 0.000000 78.558472 28.385447 -0.514084 -0.042892 3.133475 5.075717 -2.056873 1.521897 -5.436424 39.839355 3.847919 -0.517276 -2.382899 -3.885890 0.251512 -0.252827 0.238783 0.059780 -23.823578 -5.438306 -0.628038 -2.731613 4.909402 0.393790 47.607094 0.193349 -0.028135 
